<?xml version="1.0" encoding="utf-8"?>
<!-- Generator: Adobe Illustrator 27.9.0, SVG Export Plug-In . SVG Version: 6.00 Build 0)  -->
<svg version="1.1" id="Layer_1" xmlns="http://www.w3.org/2000/svg" xmlns:xlink="http://www.w3.org/1999/xlink" x="0px" y="0px"
	 viewBox="0 0 560 288" style="enable-background:new 0 0 560 288;" xml:space="preserve">
<style type="text/css">
	.st0{fill:#210095;}
	.st1{fill:#FFFFFF;}
	.st2{font-family:'Filicudi-Solid';}
	.st3{font-size:73px;}
</style>
<g>
	<path class="st0" d="M203.93,182.4h59.6c15.75-32.2,10.27-72.15-16.49-98.92c-33.69-33.69-88.32-33.69-122.01,0
		c-33.69,33.69-33.69,88.32,0,122.01c33.69,33.69,88.32,33.69,122.01,0c2.21-2.21,4.27-4.52,6.2-6.91h-49.31V182.4z"/>
	<path d="M430.35,182.4h-170.7c-1.73,5.68-3.86,11.11-6.41,16.19h177.11V182.4z"/>
	<path class="st1" d="M203.93,182.4v16.19h49.31c4.1-5.08,7.52-10.52,10.3-16.19H203.93z"/>
	<g>
		<text transform="matrix(1.1118 0 0 1 121.9445 170.6385)"><tspan x="0" y="0" class="st1 st2 st3">Vini</tspan><tspan x="132.15" y="0" class="st2 st3">cius</tspan></text>
	</g>
</g>
</svg>
